# xmcd
# 
# Track frame offsets:
#     150
#     11550
#     24750
#     34387
#     48337
#     59267
#     72054
#     86979
#     101006
#     115456
#     128815
#     143730
#     156105
#     169492
#     177367
#     191842
#     204367
#     217717
#     232417
#     243660
#     255360
#     267997
#     281292
#     295542
#     310242
# 
# Disc length: 4290
# 
# Revision: 0
# Processed by: cddbd v1.5.2PL0 Copyright (c) Steve Scherf et al.
# Submitted via: fre:ac v1.0.17
# 
DISCID=6c10c019
DTITLE=Various Artist - Those Dirty Blues 3
DYEAR=1933
DGENRE=Blues
TTITLE0=Napoleon Fletcher and Roosevelt Sykes - She Showed It All
TTITLE1=Lil Johnson - Honey, You're so good to me
TTITLE2=Bo Carter - Your Biscuits are big enough for me
TTITLE3=Ethell Waters - Organ Grinder Blues
TTITLE4=Harlem Hamfats - Garbage Man
TTITLE5=Lucille Bogan - Struttin' My Stuff
TTITLE6=Big Bill Broonzy - Good Jelly
TTITLE7=Blind Boy Fuller - Worn Out Engine Blues
TTITLE8=State Street Swingers - Don't Tear My Clothers 2
TTITLE9=Bessie Smith - It Makes my Love Come Down
TTITLE10=Lonnie Johnson - Wipe It Off
TTITLE11=The Hokum Boys - Caught Us Doint It
TTITLE12=Cliff Carlilille - Ash Can Blues
TTITLE13=Gene Autry - Frankie and Johnny
TTITLE14=Memphis Minnie - If You See My Rooster (Run him home)
TTITLE15=The Four Clefs - I Like Pie, I Like Cake
TTITLE16=Fess Williams and his Royal Flush Orchestra - Messin' Around
TTITLE17=Blanche Calloway and her Joy Boys - I Got What It Takes
TTITLE18=Alberta Hunter - My Castle's Rockin'
TTITLE19=Tampa Red - Let Me Play With Your Poodle
TTITLE20=Daddy Stovepipe and Mississippi Sarah - The Spasm
TTITLE21=Arthur McKay and Roosevelt Sykes - Somebody's Been Ridin' My Black Gal
TTITLE22=Leothus Lee "Pork Chops" Green - (Good Mornin' Susie) I'm Gonna Beat Your Bread
TTITLE23=Papa Charlie Jackson - Skoodle Um Skoo
TTITLE24=Will Weldon - Has My Gal Been here
EXTD=
EXTT0=
EXTT1=
EXTT2=
EXTT3=
EXTT4=
EXTT5=
EXTT6=
EXTT7=
EXTT8=
EXTT9=
EXTT10=
EXTT11=
EXTT12=
EXTT13=
EXTT14=
EXTT15=
EXTT16=
EXTT17=
EXTT18=
EXTT19=
EXTT20=
EXTT21=
EXTT22=
EXTT23=
EXTT24=
PLAYORDER=
